<svg xmlns="http://www.w3.org/2000/svg" version="1.1" xmlns:xlink="http://www.w3.org/1999/xlink" xmlns:svgjs="http://svgjs.com/svgjs" width="1000" height="1000"><rect width="1000" height="1000" rx="500" ry="500" fill="#555555"></rect><g transform="matrix(3.0018311169813585,0,0,3.0018311169813585,-0.000004887282955223782,-0.000004887282955223782)"><svg xmlns="http://www.w3.org/2000/svg" version="1.1" xmlns:xlink="http://www.w3.org/1999/xlink" xmlns:svgjs="http://svgjs.com/svgjs" width="333.13" height="333.13"><svg id="Layer_1" data-name="Layer 1" xmlns="http://www.w3.org/2000/svg" xmlns:xlink="http://www.w3.org/1999/xlink" viewBox="0 0 333.13 333.13">
  <defs>
    <style>
      .cls-1 {
        fill: url(#radial-gradient);
      }

      .cls-1, .cls-2 {
        stroke-width: 0px;
      }

      .cls-2 {
        fill: #fff;
      }
    </style>
    <radialGradient id="radial-gradient" cx="166.56" cy="166.56" fx="166.56" fy="166.56" r="166.56" gradientUnits="userSpaceOnUse">
      <stop offset="0" stop-color="hsl(122, 100%, 25%)"></stop>
      <stop offset="1" stop-color="hsl(122, 100%, 19%)"></stop>
    </radialGradient>
  </defs>
  <rect class="cls-1" x="0" y="0" width="333.13" height="333.13" rx="166.56" ry="166.56"></rect>
  <path class="cls-2" d="M295.1,228.98c-2.01.26-4.35.48-7.17.68-2.81.19-6.12,0-9.83-.6-3.81-.61-8.01-2.66-12.46-6.1-3.05-2.2-5.79-6.6-8.37-13.46-2.48-6.6-5.02-14.46-7.55-23.37-2.54-8.94-5.14-18.62-7.74-28.77-2.62-10.21-5.41-20.01-8.27-29.1-2.86-9.1-5.96-17.3-9.21-24.39-3.19-6.93-6.72-11.85-10.5-14.63-5.68-4.1-10.82-6.07-15.34-5.89-4.49.2-8.58,1.94-12.15,5.16-3.66,3.3-6.98,7.98-9.86,13.9-2.92,6-5.55,12.73-7.82,20-2.26,7.25-4.25,14.94-5.91,22.85-1.64,7.86-3.1,15.58-4.34,22.95-1.23,7.36-2.32,14.14-3.24,20.15-.92,6.03-1.82,10.89-2.67,14.45l-1.23,5.15-.88-5.23c-.72-4.28-1.6-10.16-2.63-17.49-1.03-7.31-2.35-15.33-3.93-23.82-1.58-8.5-3.5-17.29-5.69-26.14-2.19-8.83-4.76-17.02-7.63-24.35-2.86-7.29-6.17-13.5-9.84-18.45-3.57-4.81-7.53-7.74-11.77-8.72-2.39-.52-4.66-.77-6.82-.75-3.91.03-7.44.95-10.53,2.73-4.88,2.82-8.98,7.05-12.19,12.57-3.26,5.6-5.88,12.2-7.8,19.64-1.93,7.5-3.43,15.16-4.45,22.76-1.03,7.63-1.75,14.99-2.15,21.89-.4,6.91-.64,12.63-.72,16.99-.16,5.07-.32,10.45-.47,16.16-.15,5.64.02,11.4.52,17.12.5,5.71,1.42,11.32,2.76,16.66,1.31,5.29,3.37,10.03,6.1,14.09,1.71,2.67,3.98,4.35,6.95,5.17,3.02.84,6,1,8.85.48,2.81-.51,5.24-1.63,7.2-3.32,1.87-1.6,2.71-3.39,2.58-5.47-.23-3.04-.6-7.42-1.09-13.12-.49-5.71-1-12.15-1.52-19.32-.52-7.11-1.01-14.72-1.46-22.62-.45-7.85-.79-15.53-1-22.82-.21-7.27-.22-14.01-.02-20.05.2-6.09.65-10.96,1.34-14.48.89-4.54,1.86-8.32,2.87-11.24,1.02-2.93,2.04-5.36,3.05-7.24,1.03-1.93,2.14-3.46,3.31-4.57,1.09-1.04,2.14-2.03,3.16-2.98l1.19-1.11.56,1.53c5.77,15.8,10.78,32.62,14.89,50,4.11,17.38,7.62,34.7,10.44,51.5,1.2,6.86,3.3,13.68,6.23,20.25,2.89,6.5,6.5,11.59,10.73,15.13,1.66,1.41,3.77,2.31,6.29,2.66,2.59.36,5.15.26,7.62-.29,2.43-.54,4.66-1.56,6.61-3.03,1.9-1.44,3.12-3.18,3.72-5.33.42-1.07.86-3.93.79-12.12-.06-6.62-.07-14.66-.04-23.9.03-9.13.19-19.01.48-29.34.28-10.34,1.12-20.17,2.47-29.21,1.36-9.08,3.45-16.98,6.21-23.48,2.87-6.74,6.87-10.84,11.9-12.18l1.16-.31.18,1.19c1.02,6.66,1.99,13.48,2.86,20.26.9,6.97,1.9,14.05,2.96,21.04,1.06,6.98,2.27,14.15,3.61,21.32,1.31,7.08,3.07,14.02,5.21,20.64,5.78,18.67,13.93,33.41,24.23,43.82,10.19,10.31,23.22,15.17,38.63,14.45h0c3.74-.17,7.21-.9,10.33-2.16,3.12-1.26,5.71-2.71,7.69-4.29,1.92-1.53,3.27-3.15,4.02-4.8.67-1.48.69-2.7.05-3.75-.8-1.28-1.9-1.79-3.48-1.58Z"></path>
</svg></svg></g></svg>